<svg xmlns="http://www.w3.org/2000/svg" fill="none" viewBox="0 0 630 630"><path fill="#fff" fill-rule="evenodd" d="M175 165c-22.091 0-40 17.909-40 40v220c0 22.091 17.909 40 40 40h280c22.091 0 40-17.909 40-40V205c0-22.091-17.909-40-40-40H175zm10 30c-11.046 0-20 8.954-20 20v200c0 11.046 8.954 20 20 20h260c11.046 0 20-8.954 20-20V215c0-11.046-8.954-20-20-20H185z" clip-rule="evenodd"/><path stroke="#fff" stroke-width="30" d="M279.002 389.883l48-84.383 26 34 34-62 34.5 103M210 270c0-16.56 13.424-30 30-30s30 13.44 30 30c0 16.56-13.44 30-30 30-16.56 0-30-13.44-30-30z"/><path fill="#fff" d="M165 375h303v30H165z"/></svg>