<svg xmlns="http://www.w3.org/2000/svg" fill="none" viewBox="0 0 630 630"><path stroke="#fff" stroke-width="30" d="M150 207.75c0-22.77 18.458-41.25 41.25-41.25s41.25 18.48 41.25 41.25S214.02 249 191.25 249 150 230.52 150 207.75zM150 422.25c0-22.77 18.458-41.25 41.25-41.25s41.25 18.48 41.25 41.25-18.48 41.25-41.25 41.25S150 445.02 150 422.25z"/><path fill="#fff" d="M487.993 213.292c7.01-4.414 9.114-13.676 4.7-20.686-4.415-7.01-13.677-9.114-20.686-4.699l15.986 25.385zm-288.2 181.5l288.2-181.5-15.986-25.385-288.2 181.5 15.986 25.385z"/><path fill="#fff" d="M472.028 442.107c7.018 4.402 16.276 2.283 20.678-4.735 4.403-7.017 2.283-16.275-4.734-20.678l-15.944 25.413zm-289.3-181.5l289.3 181.5 15.944-25.413-289.3-181.5-15.944 25.413z"/></svg>